# xmcd
# 
# Track frame offsets:
#     150
#     13518
#     32374
#     52092
# 
# Disc length: 890
# 
# Revision: 0
# Processed by: cddbd v1.5.2PL0 Copyright (c) Steve Scherf et al.
# Submitted via: fre:ac v1.0.27
# 
DISCID=26037804
DTITLE=Perihelion - Hold
DYEAR=2016
DGENRE=Metal
TTITLE0=Feneketlen
TTITLE1=Szárnyakon
TTITLE2=Hold
TTITLE3=Sycamore Trees
EXTD=
EXTT0=
EXTT1=
EXTT2=
EXTT3=
PLAYORDER=
